<?xml version="1.0" encoding="UTF-8" standalone="no"?>
<svg
   version="1.1"
   width="3.5957325in"
   height="3.2293844in"
   viewBox="0 0 1078.7201 968.81486"
   id="svg1"
   sodipodi:docname="chatterteeth.svg"
   xmlns:inkscape="http://www.inkscape.org/namespaces/inkscape"
   xmlns:sodipodi="http://sodipodi.sourceforge.net/DTD/sodipodi-0.dtd"
   xmlns="http://www.w3.org/2000/svg"
   xmlns:svg="http://www.w3.org/2000/svg">
  <defs
     id="defs1" />
  <sodipodi:namedview
     id="namedview1"
     pagecolor="#ffffff"
     bordercolor="#000000"
     borderopacity="0.25"
     inkscape:showpageshadow="2"
     inkscape:pageopacity="0.0"
     inkscape:pagecheckerboard="0"
     inkscape:deskcolor="#d1d1d1"
     inkscape:document-units="in">
    <inkscape:page
       x="0"
       y="0"
       width="1078.7201"
       height="968.81488"
       id="page2"
       margin="0"
       bleed="0" />
  </sodipodi:namedview>
  <path
     id="Selection"
     fill="none"
     stroke="#000000"
     stroke-width="1"
     d="M 648.25951,57.704945 C 754.15214,26.126415 863.86052,-1.9021143 975.12492,2.1810986 1031.3542,20.816863 1029.7671,95.247523 1037.0958,143.75369 c -4.577,55.32273 34.2722,109.9183 10.5937,164.56125 -37.6598,11.88374 -76.23598,23.91455 -84.23229,66.2137 -49.90879,10.94814 -88.01876,40.86028 -141.695,25.35074 -37.22734,38.06385 -102.94833,-15.84187 -126.30734,33.6711 44.35945,40.139 102.67229,20.41577 155.78464,21.06397 50.36018,18.6059 100.14459,42.48384 141.67707,77.46913 37.56832,25.74719 59.98082,70.67332 60.54422,116.01536 11.516,48.73717 12.1627,99.51754 25.1707,147.94197 4.603,71.69405 -56.3536,123.85011 -120.34193,141.08907 C 844.86615,973.95196 721.89543,974.56468 604.772,957.12647 430.77054,926.21249 266.5233,848.16823 125.01244,743.47651 73.369973,716.03984 39.947038,662.75705 73.149658,606.86241 92.290275,559.04971 44.641616,520.15568 36.068658,474.57209 24.041659,431.97737 0.47423525,382.49465 5.1954246,341.42861 71.202409,300.05035 143.12122,268.33627 212.53936,232.93474 354.06879,166.01748 499.56401,106.79349 648.25951,57.704945 Z m -63.04,165.619995 c 35.28852,10.20398 88.58503,65.5187 81.74233,-7.67705 18.98889,-67.62455 112.10016,21.04453 102.64965,6.07566 -4.33909,-51.27978 54.15404,-115.11117 98.21157,-64.06504 10.78414,20.8251 41.3401,55.63707 35.52397,7.85035 3.3688,-62.76809 79.47996,-54.91157 85.52831,3.69964 17.73646,5.41202 -0.48236,-71.595684 32.29046,-27.48461 C 1019.8329,118.35758 1019.9691,14.536965 958.59343,15.497735 839.76836,15.85786 723.14124,47.607972 610.89247,84.498617 406.75725,156.20464 207.93703,243.41077 18.504299,348.11169 c 4.280426,59.04112 29.239393,116.5161 50.486865,171.85937 6.782046,56.26964 88.840536,116.31885 112.631046,37.21718 -8.7552,-41.26439 -22.55623,-137.03399 49.20622,-120.25933 50.95793,33.64626 15.62733,-76.43204 74.10362,-69.13287 28.34617,4.69966 72.5621,29.80752 60.32863,-22.96163 17.52259,-44.97852 69.60091,-12.8179 79.30592,-15.9016 -1.20418,-48.7586 66.3416,-48.75458 89.65291,-17.61787 1.50037,-25.38196 -4.39658,-55.86165 17,-75 m 412,-87 c -49.3916,-62.908755 -34.42232,81.93166 -74.12791,53.25477 -19.14362,-35.48111 -89.12182,-79.48062 -94.66217,-12.65335 2.41602,45.4787 -47.30929,71.03642 -66.02169,20.92313 -53.54854,-39.26654 -42.78158,56.64295 -73.58556,63.59585 -32.32741,-21.73795 -105.07658,-70.37382 -104.56534,4.94289 6.89781,45.01819 -28.54293,48.32363 -55.74444,24.50316 -58.74835,-19.00114 -15.13025,97.19074 -63.57203,44.35952 -40.18781,-47.14044 -65.91603,18.31234 -55.84508,55.08762 -14.42042,4.80343 -76.67255,-47.80608 -97.01571,2.12429 -7.46591,24.79983 -0.59908,85.99155 -40.44754,48.70536 -74.45717,-31.98902 -55.58841,106.63246 12.98671,86.98325 29.49258,-1.08272 59.36711,-41.84193 32.37576,-65.08899 39.23602,15.09162 101.56323,46.78239 122.48053,-11.02166 -6.50655,-28.53503 -16.82708,-28.35142 12.71832,-12.44359 36.06023,23.94235 90.67421,-12.60105 56.06186,-49.94241 22.65221,2.93177 58.79145,57.32037 89.05761,11.38199 18.5055,-19.90435 -22.91785,-73.72038 20.23155,-33.36073 35.67476,53.18596 120.80676,-4.72766 97.16763,-55.61734 21.88312,14.9797 37.66473,69.47625 80.22536,40.54359 43.35586,-4.60593 9.14838,-93.70568 39.9265,-39.75832 33.36933,39.87137 123.13876,19.72345 104.35211,-41.99676 2.24662,-52.27545 21.91793,16.02427 14.80353,35.94773 47.38743,37.49118 82.32139,-31.53251 77.16676,-62.49488 14.36913,14.88509 3.66983,82.79746 38.47843,39.55147 15.8578,-43.16558 -4.624,-101.98849 -23.211,-134.96826 -6.9402,24.63567 -26.01394,75.44242 -33.83988,20.53061 -3.57671,-11.65285 -8.26259,-23.12449 -15.39431,-33.08894 z m -49,183 c -32.58372,40.07989 -86.8221,17.41166 -126.77872,28.19184 -28.40652,35.43976 -65.50805,15.94764 -98.0479,16.3187 -28.33839,37.91924 -67.36838,42.06595 -108.61627,31.39169 -32.25966,33.77228 48.1417,13.73383 69.42307,28.04315 44.84878,17.35979 22.56361,-46.43492 71.07549,-39.95281 40.42974,16.54017 74.45781,2.66019 110.56071,-17.38949 20.99324,20.71651 80.96495,19.24847 66.62503,-22.14949 16.73857,25.48127 95.82586,-2.94287 48.37136,-15.43101 -11.35274,0.16172 -23.41265,-1.78375 -32.61277,-9.02258 z m -309.01,110.94 C 555.195,448.41054 502.3035,421.565 469.0076,470.08774 c -51.9738,-9.65292 -83.01156,52.75974 -133.43714,42.63829 -46.54564,-29.75068 -54.5025,80.20758 -110.74933,37.2831 -34.65468,-32.12317 -43.93619,10.20625 -10.56683,23.85237 19.45698,62.38282 82.5495,10.47427 117.68184,52.6429 33.25374,40.01405 91.05258,15.34007 125.30862,54.6041 35.7956,18.11058 77.92696,21.91269 115.22279,43.69566 42.60667,-10.58753 78.49877,31.69228 121.23907,13.64167 45.46259,2.86372 89.46796,-13.18219 134.72355,-15.54414 48.25488,-8.09888 95.57735,-24.25282 137.38344,-49.5664 C 1002.2464,629.18208 933.13461,578.96805 904.06214,548.5 819.74713,481.43054 710.87966,452.60497 605.20951,443.25494 Z m 282.01,41.06 c -15.32267,-28.34409 -120.19137,-19.51035 -55.59801,3.95797 19.53094,15.01543 36.03117,4.57271 55.59801,-3.95797 z m 48,21 c -20.57772,-21.3939 -95.54074,1.79982 -39.97588,20.34443 17.3286,39.44668 102.05087,2.07586 39.97588,-20.34443 z m 79.99999,68 c -2.2981,-58.23636 -119.14957,-22.6316 -54.76636,14.339 15.54028,27.27434 30.4893,59.36026 61.03766,37.40852 43.2284,-13.74667 -26.8158,-55.26482 -36.97778,-27.85299 -1.43963,-14.72806 19.04088,-22.70019 30.70648,-23.89453 z m -788.99999,45 c -5.65524,-37.79517 -47.16173,-53.35379 -59.70544,-11.10417 -31.97675,19.33554 -94.5365,-42.24422 -88.628093,28.83188 -20.33327,71.84661 70.445493,98.05377 112.768983,137.09289 183.34192,117.77274 400.98443,199.49429 621.83534,178.09593 74.59056,-8.28949 156.63462,-17.41484 215.8968,-67.69464 27.6054,-22.10248 54.9134,-91.74104 24.68,-110.9933 -40.642,2.26818 -18.3022,60.90385 -71.73762,50.25443 -8.97751,52.30213 -73.82474,11.20928 -92.58938,53.61732 -37.30415,4.17753 -68.21123,1.38435 -100.67125,17.14922 -33.03556,-9.32909 -55.56599,-29.28763 -83.44538,-0.39532 -47.39594,8.55333 -76.91285,-55.8889 -118.268,-17.48518 -48.00581,12.01123 -46.04788,-64.35821 -86.73378,-35.45452 -55.26622,6.13579 -47.87012,-78.439 -103.11751,-48.80673 -64.41189,21.51994 -54.00866,-105.20126 -112.60469,-61.10062 -54.87262,4.39938 -89.32349,-71.31597 -57.67998,-112.00719 z m 63,0 c -79.82187,-19.28834 -77.38945,101.82831 -4.77659,96.57184 38.80338,-20.24888 56.39481,-0.10653 67.44219,38.42115 17.54514,60.40185 100.99614,-17.86578 106.09128,43.05326 10.08346,63.27544 92.09017,-14.96437 91.90618,50.27954 31.51676,47.11304 78.75906,-36.41472 92.71444,10.51632 28.55676,41.65094 79.86897,9.96189 101.56813,0.33495 25.06014,26.19885 66.99693,23.55514 83.21865,0.60303 29.73566,16.64593 79.38953,6.64096 79.85572,-34.07009 23.46079,31.2499 64.78688,12.73171 68.41656,-20.00711 33.62403,9.94747 45.92933,-7.79863 39.88263,-38.42314 63.6566,2.59613 32.7066,-83.79019 18.5363,-120.23669 -38.64214,-22.28454 -37.53583,30.15401 -14.2977,49.7869 14.8912,25.76841 -7.0316,64.20776 -7.942,15.89687 -1.4422,-47.01949 -73.80567,-35.62188 -40.4822,6.35656 15.27252,24.46844 3.40096,97.58163 -8.55175,35.44969 18.14356,-64.72334 -93.42444,-57.88942 -57.68449,1.92839 16.03042,24.46232 -13.83878,54.24144 -8.99506,12.16472 0.32764,-55.04222 -102.0736,-49.79867 -60.73565,3.8948 15.80765,18.72754 -10.65234,94.58159 -12.58136,39.57575 30.73894,-62.08917 -77.88804,-103.21681 -80.80895,-33.82736 18.10285,28.77436 -9.20568,47.62106 -9.76497,4.91494 -12.34144,-67.73086 -107.54293,-18.74777 -99.46195,25.85798 -11.24486,-25.62373 13.14517,-77.37712 -39.68234,-75.37375 -43.33541,-17.32744 -65.73413,105.75131 -60.49998,31.32615 34.21873,-57.32364 -63.2222,-79.31782 -74.74549,-21.03847 -28.5596,20.06066 23.35033,-58.07794 -21.03052,-64.17938 -32.39964,-28.2341 -92.36457,4.42856 -108.22393,1.71617 40.06661,-33.08334 -14.3529,-50.34422 -39.36715,-61.49302 z"
     style="fill:#000000;fill-opacity:1;stroke:#e75e65;stroke-opacity:1" />
  <path
     style="fill:#ff0000;fill-opacity:1;stroke:#e75e65;stroke-width:2.47832;stroke-opacity:1"
     d="M 121.43747,587.62209 C 98.592,576.26328 80.911573,555.06187 73.084839,529.64028 70.269024,520.49437 62.522565,498.51322 55.870487,480.79325 39.697572,437.71147 32.006585,413.38407 26.097233,386.61726 17.415094,347.29092 14.316695,352.18613 65.05579,325.06604 212.91679,246.03418 377.45263,172.43894 545.22947,110.28913 707.22742,50.28 836.05548,20.237508 940.92444,18.013697 l 31.38256,-0.665487 10.74881,7.539242 c 18.99339,13.322046 30.99039,45.569834 35.37109,95.077538 1.3508,15.2654 1.2304,15.71797 -3.1298,11.772 -2.494,-2.25705 -6.8674,-4.10373 -9.7187,-4.10373 -5.4652,0 -6.30915,2.26252 -9.48756,25.43321 -2.11447,15.41449 -4.55562,16.46796 -8.35562,3.60584 -6.41406,-21.70995 -24.64856,-36.29945 -45.51856,-36.41957 -10.39134,-0.0598 -17.25559,2.778 -26.09487,10.78811 -9.4285,8.54405 -13.25941,18.59854 -14.01422,36.7815 -0.39063,9.40981 -1.38872,17.7872 -2.21794,18.61641 -3.15997,3.15999 -13.11566,-5.2111 -25.15875,-21.15437 -6.8784,-9.10597 -16.91559,-19.05381 -22.30484,-22.10631 -32.62784,-18.48056 -73.38181,11.35596 -83.61903,61.21861 l -3.00743,14.64836 -17.34822,-10.98362 c -28.71419,-18.17973 -55.53256,-24.0623 -69.11784,-15.16089 -8.37969,5.49059 -13.90575,19.12437 -13.90575,34.30804 0,17.78572 -5.15097,25.3949 -15.80303,23.34478 -4.25753,-0.81941 -20.03441,-7.78629 -35.05969,-15.48196 l -27.31871,-13.99212 -19.49238,7.18036 c -25.19378,9.28057 -30.32184,16.24722 -33.72065,45.81068 -1.31831,11.4671 -2.40544,22.84795 -2.41578,25.29077 -0.0156,3.95096 -1.27106,3.70766 -11.35666,-2.2029 -8.27137,-4.84734 -15.92534,-6.97267 -28.29921,-7.85802 -22.76803,-1.62905 -37.0571,4.8547 -44.47669,20.18157 -2.80809,5.80071 -5.10559,12.29761 -5.10559,14.43758 0,3.44975 -2.03681,3.344 -17.96781,-0.9329 -37.89272,-10.17297 -62.26469,3.04722 -59.45844,32.25234 2.03797,21.20943 -6.31143,24.13225 -42.79678,14.98144 -25.20205,-6.32088 -35.53008,-5.06454 -44.32892,5.39231 -5.92514,7.04159 -8.79951,14.79715 -17.60482,47.50053 -4.80188,17.83446 -9.95459,21.24306 -22.85716,15.1204 -12.40335,-5.88578 -32.12783,-5.64684 -42.67682,0.51694 -20.66499,12.07465 -27.30538,52.95881 -17.15686,105.63312 2.5343,13.15387 2.29211,14.76825 -3.90388,26.02231 -12.43195,22.58065 -29.84707,28.32546 -52.19042,17.21628 z"
     id="path15" />
  <path
     style="fill:#ff0000;fill-opacity:1;stroke:#e75e65;stroke-width:2.47832;stroke-opacity:1"
     d="M 674.10189,950.2671 C 586.70956,942.12791 486.08066,916.32525 394.05219,878.45854 332.67623,853.20426 205.70675,784.92895 184.63453,765.84826 181.22684,762.76267 163.38297,750.20755 144.98147,737.94802 110.18116,714.7632 87.877154,694.02274 81.60702,679.01621 c -4.355616,-10.42447 -4.891362,-20.44688 -2.513831,-47.02719 2.747456,-30.71596 7.258018,-32.93325 47.535451,-23.3674 27.95855,6.64015 36.2579,5.2285 44.317,-7.53794 6.99603,-11.08244 15.133,-17.44425 22.29485,-17.43106 9.1783,0.0156 21.29248,9.63259 26.24736,20.83394 l 4.77634,10.79768 -5.5109,12.06063 c -11.58772,25.35968 -5.16361,60.0783 15.46349,83.57127 16.23,18.48494 41.90266,26.01403 57.10398,16.747 4.7055,-2.86856 11.02594,-5.21975 14.04542,-5.22484 7.85652,-0.0125 20.88674,12.3799 29.12517,27.70115 11.55863,21.496 21.14869,34.32059 29.44928,39.382 9.47678,5.77856 27.21594,6.25347 39.64259,1.06128 18.44213,-7.70562 25.27003,-4.27984 47.83372,23.99953 7.58466,9.506 17.29716,19.42197 21.58331,22.0355 8.35059,5.0919 29.90834,6.60875 32.57616,2.29212 0.84243,-1.36306 5.28487,-2.47831 9.87209,-2.47831 7.21584,0 10.44644,2.36972 23.96075,17.57572 8.59118,9.66665 18.65734,19.14622 22.36921,21.06569 10.2976,5.32509 22.27525,4.30521 31.77816,-2.70582 14.07953,-10.38756 26.7155,-8.74018 57.91412,7.55035 16.87131,8.80946 30.63969,14.25706 38.33765,15.16878 10.69113,1.26618 13.18572,0.57228 22.68813,-6.31119 13.86778,-10.04578 26.87812,-10.17509 54.67431,-0.54331 20.74706,7.18915 20.75321,7.18968 31.99474,2.78412 13.27344,-5.2019 37.24156,-9.17078 68.57428,-11.35522 20.53772,-1.43184 22.92812,-2.12734 25.80825,-7.5089 4.60469,-8.60394 20.74169,-15.16169 42.01609,-17.07447 25.75415,-2.31559 38.99125,-8.51094 43.67815,-20.44256 3.44625,-8.77334 4.32903,-9.35559 14.18425,-9.35559 14.68831,0 22.29481,-5.98916 30.99611,-24.40557 12.577,-26.61918 27.2286,-33.39059 35.673,-16.48665 5.9487,11.90784 5.356,27.80587 -1.7915,48.06193 -12.4896,35.39519 -33.0131,56.62922 -74.41283,76.98916 -37.24487,18.31659 -71.15362,27.19281 -138.20574,36.17787 -43.63099,5.84659 -132.79624,8.26362 -171.58374,4.65119 z"
     id="path16" />
  <path
     style="fill:#ff8080;fill-opacity:1;stroke:#e75e65;stroke-width:2.47832;stroke-opacity:1"
     d="m 658.2853,739.63233 c -5.97297,-1.20263 -20.85822,-5.56535 -33.07834,-9.69494 -15.62641,-5.28069 -26.95231,-7.50834 -38.174,-7.50834 -9.82522,0 -18.08037,-1.39225 -21.48587,-3.6236 -3.04169,-1.993 -26.14372,-10.48312 -51.33787,-18.86693 -51.07469,-16.99609 -53.17225,-17.87713 -61.91659,-26.00656 -9.75719,-9.07107 -27.62528,-15.79116 -56.41847,-21.21872 -32.77218,-6.17756 -45.69753,-11.67553 -60.06237,-25.54834 -17.392,-16.79622 -24.32143,-19.26835 -59.47263,-21.21716 -17.04224,-0.94484 -33.87289,-2.90812 -37.40143,-4.36284 -6.72514,-2.77256 -19.60678,-16.48987 -19.60678,-20.87872 0,-1.40628 -4.91376,-7.17575 -10.91946,-12.821 -12.7398,-11.97522 -15.70629,-19.21993 -10.14654,-24.77968 4.45269,-4.45269 13.72447,-2.07641 22.30515,5.71662 7.97965,7.24719 20.19769,12.51709 28.99714,12.50713 11.77936,-0.0125 22.18717,-7.36138 38.21445,-26.97985 18.04123,-22.08365 26.66716,-27.04293 40.05873,-23.03071 13.09378,3.923 29.94937,3.70168 42.00418,-0.5515 5.43003,-1.91585 20.00041,-9.748 32.37856,-17.40485 26.24734,-16.2359 39.41012,-21.39921 55.56753,-21.79712 9.88106,-0.24344 12.95462,-1.60109 19.82653,-8.75831 10.19741,-10.62078 23.61972,-17.62997 37.24497,-19.4495 20.26899,-2.70675 115.60093,3.48422 153.04392,9.93884 114.49725,19.73772 197.9248,58.83709 260.71211,122.18606 40.94356,41.30978 51.90453,63.60596 42.13106,85.70052 -4.48978,10.14991 -6.74315,11.89566 -30.54903,23.66738 -30.81843,15.23931 -70.50506,28.53137 -100.44087,33.64018 -56.68643,9.67403 -106.78733,16.8105 -132.50668,18.87456 -15.50678,1.24444 -30.42465,2.75569 -33.15081,3.35832 -2.72615,0.60262 -9.84359,0.11156 -15.81659,-1.09094 z"
     id="path17" />
  <path
     style="fill:#ffffff;fill-opacity:1;stroke:#e75e65;stroke-width:2.47832;stroke-opacity:1"
     d="m 224.28758,538.87522 c -9.95268,-4.18307 -20.01383,-15.02069 -26.31156,-28.34216 -9.9202,-20.984 -6.76422,-48.67134 6.34775,-55.68865 9.43161,-5.04766 25.49517,-2.91181 37.06538,4.92828 21.38886,14.49325 28.50841,8.44884 34.06978,-28.92484 3.95727,-26.59378 7.86169,-35.23838 18.84661,-41.72731 10.12631,-5.98178 25.68131,-3.82741 52.48906,7.26968 30.66428,12.6935 29.90694,13.01954 29.92197,-12.88084 0.009,-18.48706 0.92206,-23.30197 6.19578,-32.7344 12.42297,-22.21938 24.69134,-22.4815 47.20343,-1.0086 10.51569,10.03025 15.90882,13.48232 20.12925,12.88441 6.07413,-0.86047 6.3551,-1.61538 12.2005,-32.77912 4.70982,-25.10959 19.36822,-33.04263 37.00794,-20.02846 17.59325,12.97986 38.35515,13.28471 47.75018,0.70111 3.7616,-5.03823 4.78785,-10.30833 4.65969,-23.9282 -0.19531,-20.75392 2.45966,-31.31686 9.848,-39.18139 11.16706,-11.8868 37.80072,-5.65521 75.04618,17.55888 25.58547,15.94673 27.83047,14.50061 44.41594,-28.61063 5.0444,-13.11209 11.24715,-25.71848 13.78387,-28.01418 10.197,-9.22818 26.80944,-3.50644 36.1639,12.45574 10.50338,17.92266 28.82875,23.39219 45.11122,13.46426 10.57559,-6.44829 17.74506,-21.21885 20.34331,-41.91144 2.38441,-18.98951 5.15634,-25.55028 13.16494,-31.15974 14.41678,-10.09788 43.11162,2.13381 66.9829,28.55262 23.86134,26.40783 32.066,23.63738 44.04609,-14.87292 8.11022,-26.07042 15.28288,-39.82911 20.76375,-39.82911 11.03497,0 28.56559,24.30915 34.80209,48.25896 5.72834,21.9984 6.16378,23.02322 10.48688,24.68216 6.18431,2.37313 12.36159,-5.06217 19.65939,-23.66306 3.6813,-9.38297 6.9577,-17.05996 7.2808,-17.05996 0.3231,0 4.518,9.82013 9.3218,21.82249 19.9878,49.9391 21.8545,94.46283 4.7221,112.62615 -11.7634,12.47119 -14.7274,9.26513 -21.5817,-23.3439 -4.9145,-23.38086 -11.18102,-30.97018 -11.18102,-13.5413 0,13.64118 -7.01341,33.23501 -16.21366,45.29715 -13.01699,17.0662 -29.07321,22.15555 -46.68374,14.79739 -8.02206,-3.35184 -8.24881,-3.86172 -9.64278,-21.68526 -1.7281,-22.0957 -6.58438,-37.73796 -12.04235,-38.78896 -5.592,-1.0768 -7.4595,8.14286 -5.77356,28.50379 1.87091,22.59471 -4.14231,33.47799 -24.15097,43.71081 -29.1209,14.89299 -63.09771,7.63037 -81.62361,-17.44725 -5.40388,-7.31495 -10.71819,-12.74805 -11.80954,-12.07355 -1.09137,0.67451 -2.64815,9.14461 -3.4595,18.82242 -2.06296,24.60709 -6.64781,31.33022 -27.34284,40.09516 -24.9024,10.54684 -30.32434,8.1064 -60.66021,-27.30332 -14.04116,-16.38965 -19.25984,-19.46337 -15.282,-9.00081 10.52981,27.69553 -16.44103,63.81594 -51.88262,69.48328 -14.82122,2.37 -28.88313,-3.92775 -44.83412,-20.07941 -15.101,-15.29093 -23.90941,-18.10665 -21.31697,-6.81425 0.86056,3.74844 2.26003,13.22054 3.10994,21.0491 l 1.54531,14.23368 -11.16903,11.16903 c -16.24185,16.24182 -27.17203,15.18672 -57.88425,-5.58762 -14.17703,-9.58959 -25.80812,-14.91237 -25.80812,-11.81066 0,0.82863 2.45353,4.82513 5.45228,8.88116 15.48062,20.93869 -3.40347,47.01678 -33.95291,46.88747 -9.35268,-0.0397 -16.29931,-2.15804 -28.32596,-8.63838 -8.76391,-4.72228 -16.44569,-8.07465 -17.07063,-7.44972 -0.6249,0.62491 0.27407,6.17291 1.99753,12.32888 4.94844,17.67415 -2.90956,31.30496 -22.85012,39.63668 -16.09728,6.72588 -35.3569,3.81981 -74.67109,-11.26697 -10.71554,-4.11212 -20.01449,-6.94484 -20.66434,-6.295 -0.64985,0.64985 1.30364,4.54294 4.3411,8.65132 10.67769,14.44237 0.65131,39.53753 -20.08813,50.27887 -10.58378,5.48153 -33.70584,7.92612 -41.99931,4.44044 z"
     id="path18" />
  <path
     style="fill:#ffffff;fill-opacity:1;stroke:#e75e65;stroke-width:2.47832;stroke-opacity:1"
     d="m 664.18861,872.55435 c -10.71259,-5.25584 -14.47462,-8.79547 -21.92962,-20.63331 -8.39944,-13.3375 -14.09284,-13.60531 -39.51681,-1.85872 -31.11187,14.37456 -48.48087,10.05659 -52.16259,-12.96778 -1.10966,-6.93922 -3.82034,-11.95191 -8.44862,-15.62341 -6.20079,-4.91896 -8.37772,-5.22446 -24.16297,-3.39103 -9.54153,1.10822 -23.11397,2.06613 -30.16097,2.12869 -16.56865,0.14719 -24.2134,-6.48312 -28.03809,-24.317 -5.59734,-26.0995 -12.41281,-29.01537 -52.95856,-22.6574 -25.23087,3.95644 -26.77147,3.93869 -35.673,-0.41075 -6.90959,-3.37616 -10.77062,-7.73406 -15.00625,-16.93734 -3.13665,-6.81535 -8.71284,-18.50988 -12.39159,-25.98778 -11.06134,-22.48494 -28.24809,-29.85541 -49.20223,-21.10022 -16.6184,6.94362 -33.34139,3.98378 -46.39867,-8.21219 -16.35632,-15.2774 -21.2196,-42.72456 -10.79914,-60.94765 12.84949,-22.47087 33.29314,-26.85953 64.36412,-13.81709 22.71686,9.53571 39.0648,22.52509 39.0648,31.03918 0,3.25406 -3.35379,9.73619 -7.45285,14.40478 -5.04881,5.75025 -6.44778,8.87138 -4.33706,9.67588 1.71369,0.65315 13.71059,-1.57507 26.65981,-4.95163 14.36506,-3.74575 31.27362,-6.26915 43.37053,-6.47253 18.27081,-0.30719 21.07772,0.34578 35.77203,8.32156 20.02384,10.86847 21.55537,15.23747 15.84568,45.20303 -2.27184,11.92306 -3.46803,22.34087 -2.65821,23.15072 3.04321,3.04319 11.32278,-1.86047 12.75128,-7.55206 2.18231,-8.695 13.71156,-21.35131 22.97621,-25.22235 21.86182,-9.13443 49.07606,1.94213 53.78806,21.8925 0.8685,3.67707 0.001,11.48378 -1.92706,17.34822 -7.005,21.30278 -7.73059,36.6849 -1.73056,36.6849 1.04147,0 6.26375,-8.06981 11.60503,-17.93293 5.34128,-9.86313 14.50487,-22.77144 20.36353,-28.68513 l 10.65212,-10.75218 16.60935,1.68169 c 28.68434,2.90428 33.01581,8.46612 34.66496,44.51181 0.62428,13.64412 2.08063,26.48034 3.23635,28.52496 1.59081,2.81428 2.13287,2.21219 2.23112,-2.47831 0.51178,-24.42934 35.09953,-54.52297 62.66534,-54.52297 18.64584,0 31.98034,14.71475 35.1925,38.83516 2.04434,15.35131 8.73831,23.30181 15.14343,17.98603 3.19525,-2.65181 3.65091,-5.667 2.20529,-14.59234 -3.90679,-24.12066 -2.87622,-31.76628 5.397,-40.03947 11.25871,-11.25875 26.05321,-12.42791 44.29946,-3.50084 24.01312,11.74853 31.55962,30.35556 24.85197,61.27609 -2.424,11.17403 -0.0834,21.81981 4.79731,21.81981 6.01009,0 11.90266,-15.10035 13.10125,-33.57347 1.03419,-15.93944 0.45828,-18.72903 -6.59544,-31.9474 -9.23615,-17.30819 -9.36643,-19.03963 -2.07056,-27.5216 7.93203,-9.22153 24.30534,-10.89412 39.75303,-4.06087 14.83,6.56003 21.48184,17.18203 21.49425,34.32315 0.0125,15.94863 1.74653,20.64881 7.62218,20.64881 10.32025,0 13.02188,-21.01671 4.77866,-37.17474 -2.72616,-5.34369 -4.95662,-14.12206 -4.95662,-19.50747 0,-19.88578 25.74884,-29.93709 47.66562,-18.60672 9.97987,5.15935 14.16115,15.28541 13.85006,33.54162 -0.28219,16.55457 5.52919,33.02975 11.00656,31.20397 9.46956,-3.15653 8.46438,-44.45443 -1.54806,-63.60284 -8.01666,-15.33159 -8.30991,-23.46428 -1.02991,-28.5634 8.64266,-6.05356 20.56903,-4.84635 29.31384,2.96715 6.5165,5.82244 7.9487,9.32428 9.7483,23.83556 2.2276,17.96238 4.822,22.93207 10.7783,20.64641 8.7158,-3.34459 6.8605,-36.47753 -2.4753,-44.20306 -5.6487,-4.67444 -13.1,-21.76153 -13.1657,-30.1914 -0.1166,-14.95519 7.8279,-20.99463 20.5983,-15.65882 7.298,3.04932 8.6872,5.5495 16.1671,29.0956 17.6171,55.45749 11.8751,85.86702 -17.0879,90.49843 l -9.2623,1.48109 -1.0826,14.96625 c -1.4284,19.74797 -6.9571,24.729 -26.44591,23.82622 -12.73078,-0.58972 -13.75319,-0.21375 -15.31672,5.6325 -2.95709,11.057 -9.88731,19.08821 -21.19497,24.56215 -13.69153,6.62797 -24.93372,5.0681 -36.46909,-5.06012 l -8.14925,-7.15513 -3.02481,11.30938 c -1.70906,6.39009 -6.12528,14.20565 -10.15275,17.9679 -12.90413,12.05425 -38.82694,16.12309 -56.27484,8.83288 -8.45575,-3.53303 -9.20119,-3.42728 -15.9665,2.26534 -17.18456,14.45987 -46.61031,15.25744 -65.72868,1.78156 l -11.36869,-8.0134 -21.20816,9.10906 c -24.58262,10.55847 -46.7644,13.35681 -58.85512,7.42481 z"
     id="path19" />
</svg>
